# xmcd
#
# Track frame offsets:
#	150
#	13037
#	29384
#	48295
#	64781
#	83179
#	101024
#	119772
#	138113
#	154728
#	170621
#	187389
#	198692
#	215134
#	235223
#
# Disc length: 3620 seconds
#
# Revision: 1
# Processed by: cddbd v1.5.2PL0 Copyright (c) Steve Scherf et al.
# Submitted via: audiograbber 1.83.01
#
DISCID=df0e220f
DTITLE=Various Artist - Juice CD#83
DYEAR=2008
DGENRE=Hip Hop/Rap
TTITLE0=Morlockk Dilemma - Gebieter
TTITLE1=Manuellsen feat. Juvel - Faustring Schlagstock Weste
TTITLE2=Abroo and Casper - Glaub Mir
TTITLE3=Saad - Deutschlands Most Wanted
TTITLE4=DJ Ron and DJ Shusta Pras. Sprachtot - Wo Die Strassen Sind
TTITLE5=Marteria - Der Penis Deiner Frau
TTITLE6=Baggefudda - Security
TTITLE7=Mädness - Alles Richtig
TTITLE8=Jonesmann - Auszeit
TTITLE9=Fettes Brot - Automatikpistolen
TTITLE10=Kool G Rap - On The Rise
TTITLE11=Chaundon feat. Skyzoo and Sean Price - Submission
TTITLE12=Yak Ballz - YBTV
TTITLE13=Killer Mike feat. Three 6 Mafia - Get 'EM Shawty
TTITLE14=Staiger and Justus - Hip Hop Und Sex
EXTD=
EXTT0=
EXTT1=
EXTT2=
EXTT3=
EXTT4=
EXTT5=
EXTT6=
EXTT7=
EXTT8=
EXTT9=
EXTT10=
EXTT11=
EXTT12=
EXTT13=
EXTT14=
PLAYORDER=
